<svg width="28" height="28" viewBox="0 0 28 28" fill="none" xmlns="http://www.w3.org/2000/svg">
    <path d="M17.8013 9.33334C17.8013 11.4327 16.0994 13.1346 14 13.1346C11.9006 13.1346 10.1987 11.4327 10.1987 9.33334C10.1987 7.23395 11.9006 5.53206 14 5.53206C16.0994 5.53206 17.8013 7.23395 17.8013 9.33334Z" stroke="url(#paint0_linear_1_7)" stroke-width="1.73077" stroke-linecap="round"/>
    <path d="M5.79266 19.3124C6.55413 16.8981 9.05701 15.75 11.5885 15.75H16.4115C18.943 15.75 21.4459 16.8981 22.2073 19.3124C22.4339 20.0307 22.616 20.8364 22.6998 21.7093C22.7549 22.282 22.2836 22.75 21.7083 22.75H6.29167C5.71637 22.75 5.24513 22.282 5.30015 21.7093C5.38404 20.8364 5.56611 20.0307 5.79266 19.3124Z" stroke="url(#paint1_linear_1_7)" stroke-width="1.73077" stroke-linecap="round"/>
    <defs>
        <linearGradient id="paint0_linear_1_7" x1="14" y1="4.66667" x2="14" y2="14" gradientUnits="userSpaceOnUse">
            <stop offset="1" stop-color="#CCCCCC"/>
        </linearGradient>
        <linearGradient id="paint1_linear_1_7" x1="14" y1="15.75" x2="14" y2="22.75" gradientUnits="userSpaceOnUse">
            <stop offset="1" stop-color="#CCCCCC"/>
        </linearGradient>
    </defs>
</svg>
